<svg width="188" height="188" viewBox="0 0 188 188" fill="none" xmlns="http://www.w3.org/2000/svg">
<g clip-path="url(#clip0_42_74)">
<path d="M56.5 31.5152V44.0152H175.25V68.7594L161.383 112.765H52.5672L36.9422 0.25H0.25V12.75H26.0578L41.6828 125.265H170.55L187.75 70.682V31.5152H56.5ZM63.1344 137.884C56.5063 137.892 50.1518 140.528 45.465 145.215C40.7783 149.902 38.1419 156.256 38.1344 162.884C38.1344 169.515 40.7683 175.874 45.4567 180.562C50.1451 185.25 56.504 187.884 63.1344 187.884C69.7648 187.884 76.1236 185.25 80.812 180.562C85.5005 175.874 88.1344 169.515 88.1344 162.884C88.1269 156.256 85.4906 149.902 80.8038 145.215C76.117 140.528 69.7625 137.892 63.1344 137.884ZM63.1344 175.384C60.6621 175.384 58.2454 174.651 56.1897 173.278C54.1341 171.904 52.532 169.952 51.5859 167.668C50.6398 165.384 50.3922 162.871 50.8746 160.446C51.3569 158.021 52.5474 155.794 54.2955 154.046C56.0437 152.297 58.271 151.107 60.6957 150.625C63.1205 150.142 65.6338 150.39 67.9179 151.336C70.202 152.282 72.1542 153.884 73.5277 155.94C74.9013 157.995 75.6344 160.412 75.6344 162.884C75.6304 166.198 74.3122 169.376 71.9689 171.719C69.6255 174.062 66.4484 175.38 63.1344 175.384ZM150.634 137.884C144.006 137.892 137.652 140.528 132.965 145.215C128.278 149.902 125.642 156.256 125.634 162.884C125.634 169.515 128.268 175.874 132.957 180.562C137.645 185.25 144.004 187.884 150.634 187.884C157.265 187.884 163.624 185.25 168.312 180.562C173 175.874 175.634 169.515 175.634 162.884C175.627 156.256 172.991 149.902 168.304 145.215C163.617 140.528 157.263 137.892 150.634 137.884ZM150.634 175.384C148.162 175.384 145.745 174.651 143.69 173.278C141.634 171.904 140.032 169.952 139.086 167.668C138.14 165.384 137.892 162.871 138.375 160.446C138.857 158.021 140.047 155.794 141.796 154.046C143.544 152.297 145.771 151.107 148.196 150.625C150.621 150.142 153.134 150.39 155.418 151.336C157.702 152.282 159.654 153.884 161.028 155.94C162.401 157.995 163.134 160.412 163.134 162.884C163.13 166.198 161.812 169.376 159.469 171.719C157.126 174.062 153.948 175.38 150.634 175.384Z" fill="white"/>
</g>
<defs>
<clipPath id="clip0_42_74">
<rect width="188" height="188" fill="white"/>
</clipPath>
</defs>
</svg>
