<svg width="63" height="72" viewBox="0 0 63 72" fill="none" xmlns="http://www.w3.org/2000/svg">
<circle cx="27.2983" cy="11.5" r="4" stroke="white" stroke-width="2"/>
<path d="M23.3284 30.7827C24.4907 28.8455 26.8076 27.9283 28.9809 28.545L47.4176 33.7772C52.0847 35.1016 52.3205 41.6283 47.7613 43.2862L34.7983 48L20.2902 53.0119C15.8771 54.5364 11.9679 49.7172 14.3701 45.7135L23.3284 30.7827Z" fill="#B62652"/>
<path d="M16.2983 1C17.2983 14.5 20.2983 50 57.2983 54" stroke="white" stroke-width="2"/>
<path d="M27.6898 51.2685C60.0191 41.8471 56.4289 34.3965 36.2985 32C25.7988 30.75 25.5237 36.8158 27.6898 51.2685Z" fill="#B62652"/>
<path d="M40.7983 7.5C30.7983 22 -3.20179 59.6621 23.2983 52.5C60.2984 42.5001 57.2983 34.5 36.2985 32C21.7983 30.2738 26.7983 42.5 30.7983 71.5" stroke="white" stroke-width="2"/>
</svg>
